<svg xmlns="http://www.w3.org/2000/svg" viewBox="0 0 100 100" width="256" height="256" fill="none" role="img" aria-label="Weft W (thread)"><title>Weft W (thread)</title><rect x="11.9" y="14" width="4.2" height="72" rx="2.1" fill="currentColor"/><rect x="22.19" y="14" width="4.2" height="72" rx="2.1" fill="currentColor"/><rect x="32.47" y="14" width="4.2" height="72" rx="2.1" fill="currentColor"/><rect x="42.76" y="14" width="4.2" height="72" rx="2.1" fill="currentColor"/><rect x="53.04" y="14" width="4.2" height="72" rx="2.1" fill="currentColor"/><rect x="63.33" y="14" width="4.2" height="72" rx="2.1" fill="currentColor"/><rect x="73.61" y="14" width="4.2" height="72" rx="2.1" fill="currentColor"/><rect x="83.9" y="14" width="4.2" height="72" rx="2.1" fill="currentColor"/><path d="M18,22 L34,78 L50,40 L66,78 L82,22" fill="none" stroke="currentColor" stroke-width="11" stroke-linecap="round" stroke-linejoin="round"/><rect x="32.47" y="67.64" width="4.2" height="18" rx="2.1" fill="currentColor"/><rect x="53.04" y="43.21" width="4.2" height="18" rx="2.1" fill="currentColor"/><rect x="73.61" y="35" width="4.2" height="18" rx="2.1" fill="currentColor"/></svg>
