<svg xmlns="http://www.w3.org/2000/svg" width="1200" height="630" viewBox="0 0 1200 630" role="img" aria-labelledby="title description">
  <title id="title">Weft — persistent memory for AI agents</title>
  <desc id="description">The Weft woven-thread mark beside the words “Weft: Persistent memory for you and your AI agents.”</desc>
  <defs>
    <linearGradient id="background" x1="0" y1="0" x2="1" y2="1">
      <stop offset="0" stop-color="#11131f"/>
      <stop offset="1" stop-color="#211f52"/>
    </linearGradient>
    <radialGradient id="glow" cx="0" cy="0" r="1" gradientTransform="translate(320 315) rotate(90) scale(290)">
      <stop stop-color="#615be7" stop-opacity=".24"/>
      <stop offset="1" stop-color="#615be7" stop-opacity="0"/>
    </radialGradient>
  </defs>
  <rect width="1200" height="630" fill="url(#background)"/>
  <rect width="1200" height="630" fill="url(#glow)"/>
  <path d="M0 520h1200" stroke="#ffffff" stroke-opacity=".08"/>
  <rect x="128" y="155" width="320" height="320" rx="76.8" fill="#4B45C6"/>
  <g transform="translate(128 155) scale(3.2)" fill="none">
    <g fill="#FFFFFFA8">
      <rect x="23.15" y="18.96" width="8.7" height="62.09" rx="4.35"/>
      <rect x="38.15" y="18.96" width="8.7" height="62.09" rx="4.35"/>
      <rect x="53.15" y="18.96" width="8.7" height="62.09" rx="4.35"/>
      <rect x="68.15" y="18.96" width="8.7" height="62.09" rx="4.35"/>
    </g>
    <g fill="#fff">
      <rect x="18.96" y="23.15" width="62.09" height="8.7" rx="4.35"/>
      <rect x="18.96" y="38.15" width="62.09" height="8.7" rx="4.35"/>
      <rect x="18.96" y="53.15" width="62.09" height="8.7" rx="4.35"/>
      <rect x="18.96" y="68.15" width="62.09" height="8.7" rx="4.35"/>
    </g>
    <g fill="#FFFFFFA8">
      <rect x="23.15" y="20" width="8.7" height="15" rx="2.61"/>
      <rect x="53.15" y="20" width="8.7" height="15" rx="2.61"/>
      <rect x="38.15" y="35" width="8.7" height="15" rx="2.61"/>
      <rect x="68.15" y="35" width="8.7" height="15" rx="2.61"/>
      <rect x="23.15" y="50" width="8.7" height="15" rx="2.61"/>
      <rect x="53.15" y="50" width="8.7" height="15" rx="2.61"/>
      <rect x="38.15" y="65" width="8.7" height="15" rx="2.61"/>
      <rect x="68.15" y="65" width="8.7" height="15" rx="2.61"/>
    </g>
  </g>
  <text x="526" y="304" fill="#fff" font-family="Inter, ui-sans-serif, system-ui, -apple-system, BlinkMacSystemFont, Segoe UI, sans-serif" font-size="112" font-weight="700" letter-spacing="-5">Weft</text>
  <text x="534" y="370" fill="#c5c4e6" font-family="Inter, ui-sans-serif, system-ui, -apple-system, BlinkMacSystemFont, Segoe UI, sans-serif" font-size="31" font-weight="500">Persistent memory for you</text>
  <text x="534" y="414" fill="#c5c4e6" font-family="Inter, ui-sans-serif, system-ui, -apple-system, BlinkMacSystemFont, Segoe UI, sans-serif" font-size="31" font-weight="500">and your AI agents.</text>
  <text x="130" y="572" fill="#aaa7ff" font-family="Inter, ui-sans-serif, system-ui, -apple-system, BlinkMacSystemFont, Segoe UI, sans-serif" font-size="18" font-weight="700" letter-spacing="4">MEMORY, CARRIED FORWARD</text>
</svg>
